<svg xmlns="http://www.w3.org/2000/svg" xmlns:xlink="http://www.w3.org/1999/xlink" viewBox="0 0 349.1 347.71"><defs><style>.bcd6830b-1e56-4325-8a6f-a61968bb2f04{isolation:isolate;}.f8adf240-f670-4dc7-a44b-6f147d0b600a{fill:url(#a5478751-472d-42cd-b417-055521dfe9af);}.a9b0b5b5-1cc4-46b1-8479-0c8b1fdf89e0{fill:#fff;}.e7558503-a80b-4eb1-b376-609758045e76{opacity:0.3;mix-blend-mode:multiply;}.b3535837-5c38-451e-8732-7709b110f864{fill:url(#f4e4908b-6bb2-4e35-ae1a-1f8901892160);}.becc2807-d294-4b6e-bffd-54a7e520de87{fill:url(#a5338465-7580-4708-93b5-e31669848cd1);}.b00d3a90-4e68-4aa0-be9b-d0929d2cfe5b{fill:url(#aadb156d-9bdf-431c-b35c-9d1f1fb73c5d);}</style><linearGradient id="a5478751-472d-42cd-b417-055521dfe9af" x1="141.69" y1="400.22" x2="483.36" y2="400.22" gradientUnits="userSpaceOnUse"><stop offset="0" stop-color="#b10346"/><stop offset="1" stop-color="#e30613"/></linearGradient><linearGradient id="f4e4908b-6bb2-4e35-ae1a-1f8901892160" x1="219.3" y1="391.94" x2="320.35" y2="391.94" xlink:href="#a5478751-472d-42cd-b417-055521dfe9af"/><linearGradient id="a5338465-7580-4708-93b5-e31669848cd1" x1="339.74" y1="393.44" x2="409.82" y2="393.44" xlink:href="#a5478751-472d-42cd-b417-055521dfe9af"/><linearGradient id="aadb156d-9bdf-431c-b35c-9d1f1fb73c5d" x1="222.78" y1="95.99" x2="238.88" y2="95.99" xlink:href="#a5478751-472d-42cd-b417-055521dfe9af"/></defs><title>Bez nazwy-1</title><g class="bcd6830b-1e56-4325-8a6f-a61968bb2f04"><g id="fddb54c3-e674-4359-a224-918020f0a92e" data-name="Warstwa 1"><path class="f8adf240-f670-4dc7-a44b-6f147d0b600a" d="M312.53,284.43,141.69,231.08,177.91,470l134.62,99.39L447.13,470l36.23-238.88Z" transform="translate(-137.98 -226.62)"/><path class="a9b0b5b5-1cc4-46b1-8479-0c8b1fdf89e0" d="M312.53,276.87,138,226.62,175,473.2,312.53,574.33,450.06,473.2l37-246.58Zm130.14,191L312.53,563.6,182.37,467.9l-35-231.07L312.53,287.6l165.16-50.77Z" transform="translate(-137.98 -226.62)"/><path class="a9b0b5b5-1cc4-46b1-8479-0c8b1fdf89e0" d="M312.53,294.17l-158-49L188,464.52l124.5,91.26L437,464.52l33.51-219.34Z" transform="translate(-137.98 -226.62)"/><image class="e7558503-a80b-4eb1-b376-609758045e76" width="920" height="713" transform="translate(66.16 69.8) scale(0.24)" xlink:href="Bez%20nazwy-11.png"/><path class="b3535837-5c38-451e-8732-7709b110f864" d="M305,342.62l15.34-11.13v120.9L299.9,445V381.41h-.15l-29.93,41.21-29.77-41.06h-.3V445l-20.45,7.37V331.94l15.49,10.68,35,47.52Z" transform="translate(-137.98 -226.62)"/><path class="becc2807-d294-4b6e-bffd-54a7e520de87" d="M396.28,365q-6.76-3.6-11.57-5.94a22.91,22.91,0,0,0-10.08-2.33,13.86,13.86,0,0,0-9.77,3.61,11.76,11.76,0,0,0-3.91,9,9.23,9.23,0,0,0,3.61,7.75,34.53,34.53,0,0,0,9,4.81q5.42,2,11.8,3.91a47.51,47.51,0,0,1,11.81,5.26,29.38,29.38,0,0,1,9,8.88q3.62,5.49,3.61,14.66A34.65,34.65,0,0,1,407,428.86a30.5,30.5,0,0,1-7.6,10.52,33.11,33.11,0,0,1-11.28,6.54,41.53,41.53,0,0,1-13.83,2.26A47.42,47.42,0,0,1,357.41,445a95.68,95.68,0,0,1-17.52-9l7.52-17.74c1.91,1.3,3.91,2.65,6,4.06s4.18,2.68,6.24,3.83a42.43,42.43,0,0,0,6.16,2.86,17.33,17.33,0,0,0,5.94,1.12,22.1,22.1,0,0,0,7.75-1.2,14.9,14.9,0,0,0,5.26-3.16,11.71,11.71,0,0,0,2.93-4.36,13.6,13.6,0,0,0,.9-4.81q0-6.17-3.6-9.47a29.43,29.43,0,0,0-9-5.49,117.83,117.83,0,0,0-11.8-4,48.86,48.86,0,0,1-11.81-5,28.81,28.81,0,0,1-9-8.5q-3.6-5.26-3.61-14.44a27.69,27.69,0,0,1,2.71-12.1,32.18,32.18,0,0,1,7.29-9.85,34.08,34.08,0,0,1,10.83-6.62,36.77,36.77,0,0,1,13.31-2.4q14.88,0,30.22,9.47Z" transform="translate(-137.98 -226.62)"/><polygon class="b00d3a90-4e68-4aa0-be9b-d0929d2cfe5b" points="222.78 101.22 232.18 107.04 238.88 96.08 232.44 84.95 222.78 101.22"/></g></g></svg>