<svg xmlns="http://www.w3.org/2000/svg" xmlns:xlink="http://www.w3.org/1999/xlink" viewBox="0 0 528.67 526.56"><defs><style>.bf5d2f46-e402-42c1-9625-382ca1f0a9aa{isolation:isolate;}.e5b30999-9438-4516-a6e7-f54e0d3de067{fill:#fff;}.aeca7871-9d0f-47bb-9608-872e3d1eaab0{fill:url(#fa03e780-8188-49c8-8bfd-92315f803ef9);}.bd02e9db-3535-4abf-bc76-f8bb8e73e46f{fill:url(#b8a104df-c2d4-4532-b189-de9f8f7d9da8);}.b5d0c300-cae2-4c10-af93-17a7d4b20449{opacity:0.3;mix-blend-mode:multiply;}</style><linearGradient id="fa03e780-8188-49c8-8bfd-92315f803ef9" x1="113.55" y1="411.41" x2="377.04" y2="-44.97" gradientUnits="userSpaceOnUse"><stop offset="0" stop-color="#b10346"/><stop offset="1" stop-color="#e30613"/></linearGradient><linearGradient id="b8a104df-c2d4-4532-b189-de9f8f7d9da8" x1="96.15" y1="429.46" x2="390.24" y2="-79.92" xlink:href="#fa03e780-8188-49c8-8bfd-92315f803ef9"/></defs><title>michal_swiderski</title><g class="bf5d2f46-e402-42c1-9625-382ca1f0a9aa"><g id="ee7d025a-0d33-437f-acb2-e69434ac6339" data-name="Warstwa 1"><path class="e5b30999-9438-4516-a6e7-f54e0d3de067" d="M265.37,86.16,6.65,5.36,61.51,367.12,265.37,517.64,469.22,367.12,524.07,5.36Z"/><path class="aeca7871-9d0f-47bb-9608-872e3d1eaab0" d="M264.34,102.29,25.06,28.1,75.8,360.26,264.34,498.47,452.87,360.26,503.61,28.1Z"/><path class="bd02e9db-3535-4abf-bc76-f8bb8e73e46f" d="M264.34,76.1,0,0,56,373.41l208.3,153.15L472.62,373.41,528.67,0ZM461.42,365.39,264.34,510.31,67.23,365.39,14.2,15.46,264.34,92.34,514.46,15.46Z"/><image class="b5d0c300-cae2-4c10-af93-17a7d4b20449" width="1328" height="1015" transform="translate(108.06 113.44) scale(0.24)" xlink:href="michal_swiderski1.png"/><path class="e5b30999-9438-4516-a6e7-f54e0d3de067" d="M253,175.66l23.23-16.85V341.9l-31-11.16V234.41H245l-45.32,62.4-45.09-62.17h-.45v96.1l-31,11.16V159.49l23.45,16.17,53.06,72Z"/><path class="e5b30999-9438-4516-a6e7-f54e0d3de067" d="M391.17,209.59q-10.25-5.46-17.53-9a34.62,34.62,0,0,0-15.26-3.53,21,21,0,0,0-14.8,5.46,17.83,17.83,0,0,0-5.92,13.67q0,7.52,5.47,11.72a52,52,0,0,0,13.66,7.29q8.19,3.07,17.88,5.92a71.93,71.93,0,0,1,17.87,8,44.46,44.46,0,0,1,13.67,13.44q5.46,8.31,5.46,22.2a52.47,52.47,0,0,1-4.21,21.52A46.3,46.3,0,0,1,396,322.2a50.35,50.35,0,0,1-17.08,9.91,63.13,63.13,0,0,1-20.95,3.41,71.79,71.79,0,0,1-25.62-4.78,145,145,0,0,1-26.53-13.66l11.39-26.87q4.32,3,9.1,6.14t9.45,5.81a63.92,63.92,0,0,0,9.34,4.33,26.1,26.1,0,0,0,9,1.71,33.5,33.5,0,0,0,11.72-1.83,22.54,22.54,0,0,0,8-4.78,17.75,17.75,0,0,0,4.44-6.6,20.45,20.45,0,0,0,1.37-7.29q0-9.33-5.46-14.34A44.93,44.93,0,0,0,360.43,265a175.18,175.18,0,0,0-17.87-6,73.45,73.45,0,0,1-17.88-7.63A43.14,43.14,0,0,1,311,238.51q-5.47-8-5.47-21.86a41.86,41.86,0,0,1,4.1-18.33,48.44,48.44,0,0,1,11.05-14.91,51.08,51.08,0,0,1,16.39-10,55.52,55.52,0,0,1,20.15-3.65q22.54,0,45.78,14.35Z"/><polygon class="e5b30999-9438-4516-a6e7-f54e0d3de067" points="337.37 153.28 351.61 162.11 361.75 145.5 352 128.64 337.37 153.28"/></g></g></svg>