<svg id="f05e0869-737d-445d-ab9b-37ce2e36294d" data-name="Warstwa 1" xmlns="http://www.w3.org/2000/svg" viewBox="0 0 665.32 504.28"><defs><style>.b4e153dd-fc5c-4706-838b-feaa5c7f75b0{fill:#9d2c4c;}.accf806b-fc8e-450f-b2d8-0cf665af2dee,.b4e153dd-fc5c-4706-838b-feaa5c7f75b0{fill-rule:evenodd;}.accf806b-fc8e-450f-b2d8-0cf665af2dee,.b1746407-878f-4c44-ac3b-3e2bbc79ec61{fill:#2e4d57;}.a7b42ce7-2cc3-43b2-a25b-b1962af85948{fill:#fff;}</style></defs><title>audyt_legis</title><path class="b4e153dd-fc5c-4706-838b-feaa5c7f75b0" d="M443.28,46.37c93,0,168.47,69.85,168.47,156s-75.44,156-168.47,156-168.48-69.85-168.48-156,75.45-156,168.48-156" transform="translate(-103.79 -33.73)"/><path class="accf806b-fc8e-450f-b2d8-0cf665af2dee" d="M443.28,46.65c99.09,0,179.45,69.73,179.45,155.71s-80.36,155.7-179.45,155.7-179.45-69.72-179.45-155.7S344.19,46.65,443.28,46.65m0-12.92c112.77,0,204.23,75.51,204.23,168.63S556.05,371,443.28,371,239,295.47,239,202.36,330.5,33.73,443.28,33.73Z" transform="translate(-103.79 -33.73)"/><path class="a7b42ce7-2cc3-43b2-a25b-b1962af85948" d="M361.71,223c-11.16,18.6,19.36,24.34,29.22,5.38H380.18q-8.73,0-18.47-5.38m-15.63-15.45q-10.23,10.92-10.24,23.18,0,22.5,22.84,30.57a53.51,53.51,0,0,0,13.11,1.85H376q21.51,0,39-20.33,9.06-13.6,16.8-34.09h-.67c-14.77,0-21.89,15.19-36.45,19.15-6.64,9.81-16.27,15.45-28.22,15.45-15.06-2.41-15-12.85-5.87-21.5Q357.35,221.79,346.08,207.51Zm3.53-3q0,6.54,16.29,16.63a26.25,26.25,0,0,0,12.43,3h6.06q8.89-.67,8.89-2.35v-5.38q0-12.93-14.95-17.3l-7.05-1.17Q360.53,197.94,349.61,204.49ZM440,203.32h.67c13.22-3.81,19.1-6.27,19.1-7.73,5.15-29.33,8.44-47,8.44-52.75h-.67q-12.25,10.42-19.65,34.6Zm-56.77-88q-8.4,13.78-8.4,25.2v4.2q0,24.69,22.67,36.45c7.22,3.48,31.13,3.9,32.42-7.22,0-16.22-1.18-17.22-1.18-19.66q-.66-10-16.29-27Q395.3,115.31,383.21,115.29Zm-74.75,77.78q0,31.91,23.85,54.42H333a36.7,36.7,0,0,1-2.51-11.94q0-16.77,15.61-29.38a39.31,39.31,0,0,1-4.19-16.64V187q1.17-13.1,3.52-13.1h1.34l-1.34,11.93v2.51a43.08,43.08,0,0,0,3,15.45q14.79-8.9,25.71-8.9h2.52q22.68,3.87,22.67,19.66v1.16l-.5,4.21h.5a45.32,45.32,0,0,0,13.77-10.75v-.5c-2.57,0-6-2.25-10.24-6.72l2.52-2.36c3.81,4,7.39,6.06,10.75,6.06q10.74-13.6,10.74-22.18A33.25,33.25,0,0,1,412.43,187h-4.7q-20.82,0-33.59-26.87a58.59,58.59,0,0,1-2.86-17.31q0-12.6,7.05-27.55h-.5q-37.12,0-60.47,40.15A79.78,79.78,0,0,0,308.46,193.07Zm156-52.58,3.69-1.84q0-9.26-8.39-25.2-14.12-19.14-32.93-19.14h-8.39q-18,0-32.92,18c8.84,0,20.56,4.34,32.92,15.63,8.19,7.48,15.67,21.35,15.62,33.42.67,17.44,1,25.91-9.58,44.35h.5c6.38,0,7.5-1.08,9.58-4.88C441.11,184.33,448.72,150.35,464.5,140.49Zm38,136.49c0,3.6-10.28,3.43-13.32,3.43-27.31,0-31.75-36.79-31.75-57.45a128.66,128.66,0,0,1,2.36-22.67l-21,7.22q-17.3,59.79-62.82,59.8H370.6q-35.25,0-58.62-40.14-8.37-19.32-8.39-37.64,0-46.51,45.52-72.38,9.9-4.37,32.93-6.05,16.6-21.51,41.3-21.5h7.06q31.91,0,47.37,33.43a76.53,76.53,0,0,1,4.2,24.53q-1.19,29.73-4.2,47.86c10,3.81,15,7.21,15,10.25l-1.85,1.17h-.5q-7.74-7.72-12.6-7.73v.5c0,15-9.17,75.28,13.67,75.28C493.72,274.89,502.4,271.41,502.51,277Z" transform="translate(-103.79 -33.73)"/><path class="a7b42ce7-2cc3-43b2-a25b-b1962af85948" d="M442.65,275.91c15.48,0,26.16,6.78,38.47,15.94-9.48,13.28-20.74,19.47-32.33,19.47H445c-28.15-2.69-30.24-35.41-2.35-35.41m18.31.64c-15.36-5.73-43.62-6.12-43.62,17.06,0,5.49,2.8,10.64,8.38,15.49-9.33-4.28-15.19-10.87-16.63-19.94C403.77,255.62,464.34,235.09,461,276.55Zm-27.59-25.21c-19.31,7.91-29.78,20.15-29.78,35.64,0,24.24,23.08,27.18,41.41,28.13A65.44,65.44,0,0,0,489.73,298c23,21.14,74.48,28,77.91-22.13.45-6.54-2.68-12.08-9.34-12.08-5.11,0-9.37,7.21-7,11.69,2.81,5.23,9.68,9.63,9.68,11.94,0,2.73-.37,5.59-2.22,7.74-21.79,25.27-47.44,10.77-66.85.62,23.53-27.09,28.91-85.22,42.49-118.77,2.55-6.31,10.67-19.63,19.3-19.83,18.28-.43-4.61,81.81-24.34,102.1,20.66-9.2,66.33-103,25.76-106.83C510.4,148.32,498.2,244.63,488,277l-5.38,11.06-18.34-10,2.22-6.63c2.3-13.78-7.65-22.4-20.39-22.38A32.8,32.8,0,0,0,433.37,251.34Z" transform="translate(-103.79 -33.73)"/><path class="b1746407-878f-4c44-ac3b-3e2bbc79ec61" d="M302.73,535.57a13.41,13.41,0,0,1-5.9-1.27,12.78,12.78,0,0,1-4.39-3.5,16.32,16.32,0,0,1-2.78-5.26,21.54,21.54,0,0,1-1-6.46,22.69,22.69,0,0,1,.67-5.68,12.09,12.09,0,0,1,1.8-4,9.53,9.53,0,0,1,2.58-2.5,10.48,10.48,0,0,1,3-1.3,13.09,13.09,0,0,1,3.15-.37,12.48,12.48,0,0,1,9.54,4.3,15.28,15.28,0,0,1,2.86,5,20.47,20.47,0,0,1,1,6.69,24.35,24.35,0,0,1-.56,5.49,14.23,14.23,0,0,1-1.46,3.89,10.84,10.84,0,0,1-2.07,2.55,9.23,9.23,0,0,1-2.34,1.48,9.55,9.55,0,0,1-2.29.69,9.92,9.92,0,0,1-1.92.17m-1.9,2.43a22.38,22.38,0,0,0,6.61-.92,18.4,18.4,0,0,0,5.41-2.57,17.14,17.14,0,0,0,6.56-9,19.52,19.52,0,0,0,.87-5.85,18,18,0,0,0-1.32-6.95,14.52,14.52,0,0,0-3.77-5.29,17.33,17.33,0,0,0-6-3.35,25.2,25.2,0,0,0-7.91-1.17,24.42,24.42,0,0,0-6.32.77,18.74,18.74,0,0,0-5,2.08,16.71,16.71,0,0,0-3.7,3.07,16.93,16.93,0,0,0-2.54,3.68,18.06,18.06,0,0,0-1.45,4,17.63,17.63,0,0,0-.46,4,19.31,19.31,0,0,0,.46,4.07,18.42,18.42,0,0,0,1.46,4,16,16,0,0,0,2.51,3.67,16.43,16.43,0,0,0,3.62,3,18.28,18.28,0,0,0,4.84,2A23.76,23.76,0,0,0,300.83,538Zm-43.92-31.36a.76.76,0,0,1,.09-.41.6.6,0,0,1,.34-.22,7.15,7.15,0,0,1,1.12-.12c.48,0,1,0,1.62,0a6.92,6.92,0,0,1,1.79.23,6.75,6.75,0,0,1,1.88.74,6.41,6.41,0,0,1,1.69,1.46,6.64,6.64,0,0,1,1.22,2.27,10.18,10.18,0,0,1,.48,3.26,9.57,9.57,0,0,1-.47,3.14,6.7,6.7,0,0,1-2.53,3.51,3.48,3.48,0,0,1-.79.45,4.57,4.57,0,0,1-1,.22c-.39,0-.88.06-1.5.06s-1.19,0-1.82-.08a9.79,9.79,0,0,1-1.7-.35.64.64,0,0,1-.34-.28,1,1,0,0,1-.09-.5ZM251,524.41c0,1.38,0,2.67,0,3.88s0,2.29-.05,3.25-.08,1.76-.15,2.4a5.2,5.2,0,0,1-.39,1.61,1.38,1.38,0,0,1-1,.78l-.72.11a8.31,8.31,0,0,1-.92,0,.91.91,0,0,0-.58.16.38.38,0,0,0-.16.32.36.36,0,0,0,.24.34,1.45,1.45,0,0,0,.66.13c.47,0,1,0,1.55,0l1.66,0,1.48-.05,1,0,1,0,1.82.05,2.2,0c.75,0,1.47,0,2.15,0a1.58,1.58,0,0,0,.7-.13.36.36,0,0,0,.25-.34.45.45,0,0,0-.14-.32.69.69,0,0,0-.44-.16l-.69,0c-.26,0-.53,0-.8-.05l-.77-.08a2.21,2.21,0,0,1-1.06-.43,1.61,1.61,0,0,1-.51-.8,5.2,5.2,0,0,1-.22-1.16c-.07-.64-.12-1.42-.16-2.38s-.07-2-.09-3.26,0-2.49,0-3.89v-.63a.32.32,0,0,1,.11-.28.39.39,0,0,1,.26-.09l4.16.1a2,2,0,0,1,.45.06.86.86,0,0,1,.4.26c.15.17.37.48.67.9s.65.93,1.05,1.51l1.27,1.82c.46.64.93,1.26,1.38,1.88.86,1.16,1.64,2.17,2.35,3a20.14,20.14,0,0,0,2,2.18,8.32,8.32,0,0,0,2,1.38,7.41,7.41,0,0,0,1.26.52,12,12,0,0,0,1.61.29q.9.09,2.19.09h4.42a2,2,0,0,0,.67-.09.39.39,0,0,0,.23-.38.46.46,0,0,0-.15-.32.64.64,0,0,0-.43-.16h-.51a3.11,3.11,0,0,1-.6-.1,5.28,5.28,0,0,1-1-.26,7.46,7.46,0,0,1-1.66-.81,14.75,14.75,0,0,1-2.27-1.87c-1.39-1.41-2.91-3.11-4.59-5.12s-3.52-4.26-5.57-6.81a29.23,29.23,0,0,0,3.68-3.43,12.51,12.51,0,0,0,2.08-3.24,8.17,8.17,0,0,0,.67-3.23,7.6,7.6,0,0,0-1.15-3.88,9,9,0,0,0-1.06-1.38,6.92,6.92,0,0,0-1.07-.91,10,10,0,0,0-2.72-1.22,17.79,17.79,0,0,0-3-.55c-1.05-.09-2.06-.14-3.05-.13l-1.5,0-2.06,0-2.06,0-1.6,0-1,0-1.57,0-1.82,0-1.89,0a3,3,0,0,0-.78.08.36.36,0,0,0-.27.35.39.39,0,0,0,.22.35,1.13,1.13,0,0,0,.58.13c.34,0,.69,0,1,0a5.28,5.28,0,0,1,.81.13,4.3,4.3,0,0,1,1.14.47,1.65,1.65,0,0,1,.62.74A3.63,3.63,0,0,1,251,507c0,.28,0,.57,0,.88s0,.69,0,1.12,0,1,0,1.62v13.78Zm-41-1.33a22.83,22.83,0,0,0,.57,5.5,13,13,0,0,0,1.5,3.83,10.67,10.67,0,0,0,4.89,4.27,13.75,13.75,0,0,0,2.91.9,20.85,20.85,0,0,0,2.73.37c.86,0,1.59.06,2.22,0a19.08,19.08,0,0,0,3.14-.22,14.51,14.51,0,0,0,3.32-.93,13.1,13.1,0,0,0,3.33-2.06A10.07,10.07,0,0,0,237,532a13.65,13.65,0,0,0,1.33-3.31,21.91,21.91,0,0,0,.62-3.65c.1-1.26.15-2.51.13-3.77v-4.79c0-1.36,0-2.51,0-3.47s0-1.76,0-2.41,0-1.19,0-1.62,0-.81,0-1.12,0-.6,0-.88a6.37,6.37,0,0,1,.2-1.29,1.49,1.49,0,0,1,.51-.76,2,2,0,0,1,1-.37l.7-.13c.2,0,.4,0,.67,0,.53,0,.78-.17.78-.48a.37.37,0,0,0-.22-.35,2.63,2.63,0,0,0-.73-.08l-1.52,0-1.66,0-1.42,0-.82,0-.56,0-1.34,0-1.77,0-1.87,0a2.51,2.51,0,0,0-.71.08.38.38,0,0,0-.23.35c0,.31.26.48.78.48.29,0,.59,0,.91,0a4.8,4.8,0,0,1,.78.13,4.16,4.16,0,0,1,1.14.47,1.48,1.48,0,0,1,.59.74,3.93,3.93,0,0,1,.23,1.21c0,.28,0,.57,0,.88s0,.69,0,1.12,0,1,0,1.62v11.51c0,1.15,0,2.25,0,3.3a18.13,18.13,0,0,1-.32,3,9.89,9.89,0,0,1-.8,2.57,6.81,6.81,0,0,1-1.51,2.08,8.15,8.15,0,0,1-2,1.42,9.61,9.61,0,0,1-2.15.74,10.92,10.92,0,0,1-2.09.22,14.45,14.45,0,0,1-1.77-.11,8.36,8.36,0,0,1-2-.5,7.49,7.49,0,0,1-2.08-1.19,7.92,7.92,0,0,1-1.52-1.54,8.2,8.2,0,0,1-1.1-2.11,14.46,14.46,0,0,1-.68-3,33.47,33.47,0,0,1-.23-4.19V513c0-.95,0-1.76,0-2.41s0-1.19,0-1.62,0-.81,0-1.12,0-.6,0-.88a3.51,3.51,0,0,1,.43-1.73,1.71,1.71,0,0,1,1.26-.69l.7-.13c.2,0,.41,0,.67,0a1,1,0,0,0,.55-.13.4.4,0,0,0,.18-.35.36.36,0,0,0-.24-.35,2.69,2.69,0,0,0-.75-.08l-1.48,0-1.69,0-1.61,0-1.18,0-1.86,0-2.5-.05-2.59,0a2.67,2.67,0,0,0-.76.08.36.36,0,0,0-.26.35c0,.31.27.48.8.48.32,0,.66,0,1,0a5.17,5.17,0,0,1,.79.13,4.63,4.63,0,0,1,1.16.47,1.57,1.57,0,0,1,.61.71A3.83,3.83,0,0,1,210,507c0,.28,0,.57,0,.88s0,.69,0,1.12,0,1,0,1.62v12.45Zm-19.45,1.33c0,1.45,0,2.8,0,4s0,2.35,0,3.32-.09,1.77-.16,2.39a3.9,3.9,0,0,1-.39,1.49,1.42,1.42,0,0,1-1,.68c-.2,0-.44.08-.71.11a8.42,8.42,0,0,1-.92,0,1,1,0,0,0-.59.16.33.33,0,0,0-.14.32.35.35,0,0,0,.22.34,1.48,1.48,0,0,0,.66.13c.48,0,1,0,1.59,0l1.75,0,1.6-.05,1.13,0,1.84,0,2.63.07c1,0,2,0,3,0a1.35,1.35,0,0,0,.63-.13.37.37,0,0,0,.26-.34.37.37,0,0,0-.18-.32.86.86,0,0,0-.55-.16l-.79,0c-.28,0-.56,0-.84-.05l-.75-.08a2.57,2.57,0,0,1-1-.38,1.45,1.45,0,0,1-.54-.7,4.05,4.05,0,0,1-.26-1c-.06-.64-.11-1.45-.14-2.42s0-2.09-.06-3.34,0-2.59,0-4V513c0-.95,0-1.76,0-2.41s0-1.19,0-1.62,0-.81,0-1.12,0-.6,0-.88a3.49,3.49,0,0,1,.45-1.73,1.78,1.78,0,0,1,1.3-.69c.26-.06.49-.09.71-.13s.43,0,.67,0a1.28,1.28,0,0,0,.54-.11.44.44,0,0,0,.19-.43c0-.14-.08-.23-.26-.29a2.46,2.46,0,0,0-.69-.08l-1.53,0-1.68,0-1.57,0-1.17,0-1.29,0-1.67,0-1.75,0-1.51,0a3.33,3.33,0,0,0-.83.08c-.19.06-.28.15-.28.29a.46.46,0,0,0,.19.43,1.3,1.3,0,0,0,.55.11,8.24,8.24,0,0,1,.86,0,5.42,5.42,0,0,1,.82.17,2.36,2.36,0,0,1,.84.42,1.68,1.68,0,0,1,.51.73,4,4,0,0,1,.23,1.22c0,.28,0,.57,0,.88s0,.69,0,1.12,0,1,0,1.62v13.78Zm-25.62-4.17c0-.14,0-.22.07-.25a.25.25,0,0,1,.19-.07h2a7.85,7.85,0,0,1,2.32.33,6.19,6.19,0,0,1,1.69.83,10.85,10.85,0,0,1,2.16,2,11.11,11.11,0,0,1,1.34,2.14,10.14,10.14,0,0,1,.68,2.09,8,8,0,0,1,.19,1.78,8.25,8.25,0,0,1-.53,3.07,5,5,0,0,1-3.23,3,6.26,6.26,0,0,1-1.93.3,14.57,14.57,0,0,1-1.6-.09,8.07,8.07,0,0,1-1.72-.44,2.46,2.46,0,0,1-1.08-.75,2.79,2.79,0,0,1-.45-1.35,16.76,16.76,0,0,1-.1-2.33Zm0-13.8a1.09,1.09,0,0,1,.09-.54.44.44,0,0,1,.34-.21,6.8,6.8,0,0,1,.93-.09h1.06a5.18,5.18,0,0,1,4.4,2.26A6.53,6.53,0,0,1,172.8,510a8.09,8.09,0,0,1,.34,2.32,6.41,6.41,0,0,1-.59,2.83,5.28,5.28,0,0,1-1.52,1.91,3.46,3.46,0,0,1-1.53.64,12.26,12.26,0,0,1-2.1.15,12.43,12.43,0,0,1-1.32,0,4.19,4.19,0,0,1-.84-.1.42.42,0,0,1-.21-.13.44.44,0,0,1-.1-.35Zm-6,18c0,1.38,0,2.67,0,3.88s0,2.29,0,3.25-.08,1.76-.16,2.4a5.24,5.24,0,0,1-.37,1.61,1.46,1.46,0,0,1-1,.78c-.21,0-.45.08-.72.11a8.54,8.54,0,0,1-.92,0,1,1,0,0,0-.59.16.4.4,0,0,0,.08.66,1.5,1.5,0,0,0,.67.13c.48,0,1,0,1.54,0s1.11,0,1.67-.06,1.08,0,1.55,0l1.1,0,1,0c.41,0,.88,0,1.4,0s1,0,1.56,0l1.54.08,1.3.06h.84a16.35,16.35,0,0,0,5.54-.84,11,11,0,0,0,3.84-2.22,9.26,9.26,0,0,0,2.23-3.13,8.85,8.85,0,0,0,.73-3.55,8.61,8.61,0,0,0-.52-2.92,9.49,9.49,0,0,0-1.4-2.43,11.31,11.31,0,0,0-2-1.93,12.68,12.68,0,0,0-2.3-1.45,14.36,14.36,0,0,0-2.35-1,15.87,15.87,0,0,0,1.94-1.46,13.67,13.67,0,0,0,1.68-1.8,9.45,9.45,0,0,0,1.16-2.14,7.2,7.2,0,0,0,.45-2.46,6.13,6.13,0,0,0-.22-1.61,5.85,5.85,0,0,0-.84-1.78,6.42,6.42,0,0,0-1.71-1.64,10,10,0,0,0-2.84-1.21,18.77,18.77,0,0,0-4.25-.46l-2,0-2.47.05-2.5,0-1,0-1.54,0-1.83,0-1.89,0a3,3,0,0,0-.77.08.37.37,0,0,0-.27.35.38.38,0,0,0,.21.35,1.21,1.21,0,0,0,.58.13c.35,0,.7,0,1,0a5.12,5.12,0,0,1,.8.13,4.63,4.63,0,0,1,1.16.47,1.61,1.61,0,0,1,.6.74,3.19,3.19,0,0,1,.24,1.21c0,.28,0,.57,0,.88s0,.69,0,1.12,0,1,0,1.62v13.78Z" transform="translate(-103.79 -33.73)"/><path class="b1746407-878f-4c44-ac3b-3e2bbc79ec61" d="M496.67,523.08a22.83,22.83,0,0,0,.57,5.5,13.31,13.31,0,0,0,1.49,3.83,11.35,11.35,0,0,0,2.15,2.54,10.79,10.79,0,0,0,2.74,1.73,14,14,0,0,0,2.92.9,20.19,20.19,0,0,0,2.73.37c.86,0,1.59.06,2.2,0a19.24,19.24,0,0,0,3.16-.22,14.66,14.66,0,0,0,3.32-.93,13.45,13.45,0,0,0,3.33-2.06,9.66,9.66,0,0,0,2.33-2.76,12.94,12.94,0,0,0,1.35-3.31,20.91,20.91,0,0,0,.6-3.65c.1-1.26.16-2.51.15-3.77v-4.79c0-1.36,0-2.51,0-3.47s0-1.76,0-2.41,0-1.19,0-1.62,0-.81,0-1.12,0-.6,0-.88a5.22,5.22,0,0,1,.2-1.29,1.43,1.43,0,0,1,.51-.76,2,2,0,0,1,1-.37l.71-.13a6.54,6.54,0,0,1,.66,0c.53,0,.79-.17.79-.48a.36.36,0,0,0-.24-.35,2.42,2.42,0,0,0-.71-.08l-1.52,0-1.66,0-1.43,0-.82,0-.55,0-1.34,0-1.78,0-1.86,0a2.47,2.47,0,0,0-.71.08.37.37,0,0,0-.24.35c0,.31.26.48.79.48.28,0,.59,0,.91,0a4.8,4.8,0,0,1,.78.13,4.16,4.16,0,0,1,1.14.47,1.65,1.65,0,0,1,.59.74,3.69,3.69,0,0,1,.22,1.21c0,.28,0,.57,0,.88s0,.69,0,1.12,0,1,0,1.62,0,1.46,0,2.41v9.1c0,1.15,0,2.25-.05,3.3a20.64,20.64,0,0,1-.32,3,10.29,10.29,0,0,1-.8,2.57,7,7,0,0,1-1.52,2.08,7.79,7.79,0,0,1-2,1.42,9.89,9.89,0,0,1-2.14.74,10.92,10.92,0,0,1-2.09.22,14.45,14.45,0,0,1-1.77-.11,8.25,8.25,0,0,1-2-.5,8.4,8.4,0,0,1-3.6-2.73A7.62,7.62,0,0,1,504,530a14.46,14.46,0,0,1-.68-3,33.28,33.28,0,0,1-.24-4.19V513c0-.95,0-1.76,0-2.41V509c0-.43,0-.81,0-1.12s0-.6,0-.88a3.51,3.51,0,0,1,.43-1.73,1.71,1.71,0,0,1,1.26-.69l.7-.13c.2,0,.41,0,.66,0a1,1,0,0,0,.54-.13.36.36,0,0,0,.2-.35.37.37,0,0,0-.24-.35,2.77,2.77,0,0,0-.76-.08l-1.48,0-1.68,0-1.6,0-1.2,0-1.86,0-2.5-.05-2.6,0a2.69,2.69,0,0,0-.75.08.36.36,0,0,0-.24.35c0,.31.26.48.79.48.32,0,.65,0,1,0a5,5,0,0,1,.79.13,4.33,4.33,0,0,1,1.16.47,1.48,1.48,0,0,1,.62.71,4.45,4.45,0,0,1,.24,1.24c0,.28,0,.57,0,.88s0,.69,0,1.12,0,1,0,1.62v12.45Zm-37.17-4.94a.44.44,0,0,1-.22-.07.28.28,0,0,1-.1-.25v-5.16c0-1.12,0-2,0-2.74s0-1.27,0-1.72,0-.84,0-1.19a3.39,3.39,0,0,1,.45-1.73,1.78,1.78,0,0,1,1.3-.69c.26-.06.5-.09.71-.13s.42,0,.6,0a1.25,1.25,0,0,0,.64-.13.38.38,0,0,0,.21-.35.37.37,0,0,0-.24-.35,2.47,2.47,0,0,0-.71-.08l-1.59,0-1.77,0-1.63,0-1.17,0-1.78,0-2.44-.05-2.59,0a2.73,2.73,0,0,0-.73.08.39.39,0,0,0-.27.35.39.39,0,0,0,.22.35,1.17,1.17,0,0,0,.57.13c.35,0,.7,0,1.05,0a5,5,0,0,1,.79.13,4.11,4.11,0,0,1,1.15.47,1.74,1.74,0,0,1,.63.74,3.93,3.93,0,0,1,.23,1.21c0,.28,0,.57,0,.88s0,.69,0,1.12,0,1,0,1.62v13.78c0,1.38,0,2.67,0,3.88s0,2.29-.05,3.25-.08,1.76-.15,2.4a4.93,4.93,0,0,1-.39,1.61,1.36,1.36,0,0,1-1,.78c-.21,0-.44.08-.71.11a8.54,8.54,0,0,1-.92,0,1,1,0,0,0-.59.16.39.39,0,0,0,.08.66,1.5,1.5,0,0,0,.67.13c.47,0,1,0,1.56,0l1.71,0,1.56-.05,1.12,0c.47,0,1.09,0,1.87,0l2.68.07c1,0,2,0,3,0a1.58,1.58,0,0,0,.68-.13.36.36,0,0,0,.25-.34.38.38,0,0,0-.16-.32.94.94,0,0,0-.57-.16l-.78,0c-.28,0-.56,0-.84-.05l-.75-.08a2.13,2.13,0,0,1-1-.43,1.63,1.63,0,0,1-.52-.78,4.92,4.92,0,0,1-.23-1.12c-.07-.66-.14-1.46-.17-2.42s-.06-2-.08-3.21,0-2.49,0-3.85v-3.44a.22.22,0,0,1,.1-.2.42.42,0,0,1,.22,0H477a.25.25,0,0,1,.18.06.27.27,0,0,1,.08.19v3.44c0,1.37,0,2.66,0,3.84s0,2.27-.05,3.21a23.45,23.45,0,0,1-.15,2.37,5.22,5.22,0,0,1-.38,1.61,1.39,1.39,0,0,1-1,.78c-.2,0-.45.08-.72.11a9.09,9.09,0,0,1-1,0,.87.87,0,0,0-.56.16.37.37,0,0,0-.18.32.37.37,0,0,0,.26.34,1.82,1.82,0,0,0,.74.13c.46,0,1,0,1.57,0l1.77,0,1.63-.05,1.14,0,1.8,0,2.58.07c1,0,1.94,0,2.95,0a1.57,1.57,0,0,0,.69-.13.35.35,0,0,0,.26-.34.38.38,0,0,0-.19-.32.94.94,0,0,0-.54-.16c-.38,0-.8,0-1.23,0s-.81-.07-1.14-.11a2.2,2.2,0,0,1-1.08-.43,1.52,1.52,0,0,1-.53-.78,4.87,4.87,0,0,1-.25-1.12c-.07-.66-.1-1.46-.15-2.44s0-2.06,0-3.27,0-2.5,0-3.88V513c0-.95,0-1.76,0-2.41s0-1.19,0-1.62,0-.81,0-1.12,0-.6,0-.88a3.63,3.63,0,0,1,.43-1.73,1.75,1.75,0,0,1,1.25-.69l.77-.13c.22,0,.42,0,.61,0a1.41,1.41,0,0,0,.63-.13.4.4,0,0,0,.21-.35.37.37,0,0,0-.25-.35,2.64,2.64,0,0,0-.75-.08l-1.53,0-1.7,0-1.58,0-1.15,0-1.25,0-1.75,0-2,0-2,0a2.74,2.74,0,0,0-.75.08.37.37,0,0,0-.25.35c0,.31.26.48.79.48.34,0,.66,0,1,0a4.73,4.73,0,0,1,.8.13,4.11,4.11,0,0,1,1.15.47,1.74,1.74,0,0,1,.63.74,3.93,3.93,0,0,1,.23,1.21c0,.35,0,.73,0,1.19s0,1,0,1.72,0,1.62,0,2.74,0,2.52,0,4.22v.94a.27.27,0,0,1-.26.32ZM432.45,538c1,0,2.06,0,3.11-.09s2-.17,2.95-.31a12.67,12.67,0,0,0,2.33-.59,2,2,0,0,0,.82-.49,1.78,1.78,0,0,0,.39-.84,11.16,11.16,0,0,0,.29-1.15c.1-.46.19-.95.27-1.45s.16-1,.23-1.47.11-.87.15-1.2.06-.57.06-.68a1.26,1.26,0,0,0-.13-.54.51.51,0,0,0-.39-.24.39.39,0,0,0-.39.18,2.39,2.39,0,0,0-.2.71,4.51,4.51,0,0,1-.3,1,6.53,6.53,0,0,1-.55,1,5.71,5.71,0,0,1-.73,1,6,6,0,0,1-2,1.53,8.51,8.51,0,0,1-2.64.68,30.5,30.5,0,0,1-3.54.17,13.21,13.21,0,0,1-3.9-.62,14.5,14.5,0,0,1-3.88-1.85,14.2,14.2,0,0,1-3.38-3.12,14.87,14.87,0,0,1-2.39-4.4,17.56,17.56,0,0,1-.9-5.72,24.51,24.51,0,0,1,.33-4.31,14.61,14.61,0,0,1,1.31-4,10.72,10.72,0,0,1,2.63-3.35,9.24,9.24,0,0,1,2.3-1.46,11.62,11.62,0,0,1,2.85-.82,22.84,22.84,0,0,1,3.6-.25,18.3,18.3,0,0,1,5.49.75,8.6,8.6,0,0,1,3.47,1.88,5.85,5.85,0,0,1,1.31,2,6.27,6.27,0,0,1,.48,2.19,2,2,0,0,0,.11.7.35.35,0,0,0,.36.24.48.48,0,0,0,.46-.32,2,2,0,0,0,.18-.78q0-.35,0-.93c0-.4,0-.81,0-1.28s0-.93,0-1.39,0-.88.07-1.26.07-.93.1-1.26.05-.57.08-.75a4.21,4.21,0,0,0,0-.46.4.4,0,0,0-.13-.34,1,1,0,0,0-.55-.19c-.68-.08-1.4-.19-2.18-.32s-1.58-.28-2.46-.41c-.7-.1-1.36-.17-2-.24s-1.38-.13-2.13-.18-1.62-.06-2.58-.06a29.74,29.74,0,0,0-6.13.57A19.39,19.39,0,0,0,420,505.1a16.94,16.94,0,0,0-3.78,2.55,16.07,16.07,0,0,0-2.72,3.14,16.94,16.94,0,0,0-1.66,3.33,17.35,17.35,0,0,0-.83,3.15,16.92,16.92,0,0,0-.22,2.65,20.92,20.92,0,0,0,.48,4.51A15.75,15.75,0,0,0,413,529a15.59,15.59,0,0,0,3.54,4.19,18.48,18.48,0,0,0,4.6,2.82,21.75,21.75,0,0,0,5.31,1.54A33.16,33.16,0,0,0,432.45,538Zm-47-14.33a.19.19,0,0,1-.17-.08.21.21,0,0,1,0-.24L389.76,512a1.43,1.43,0,0,1,.09-.27.21.21,0,0,1,.17-.15c.06,0,.1.06.13.15a2.76,2.76,0,0,1,.08.27l4.38,11.39a.2.2,0,0,1,0,.19s-.08.07-.19.07Zm10,2.48a.61.61,0,0,1,.28.06.43.43,0,0,1,.2.26l3.58,9a.76.76,0,0,1,0,.68.57.57,0,0,1-.4.32.78.78,0,0,0-.47.16.38.38,0,0,0-.11.32c0,.15.13.24.37.28s.58.06,1,.09l3.68.06c1.14,0,2.15,0,3.06,0h2.16c.57,0,1,0,1.3,0a1.65,1.65,0,0,0,.58-.13.36.36,0,0,0,.13-.29c0-.32-.21-.48-.64-.48a7.39,7.39,0,0,1-.8,0l-.94-.11a3.43,3.43,0,0,1-.71-.29,3.39,3.39,0,0,1-.9-.7,7.29,7.29,0,0,1-1.09-1.41,23.05,23.05,0,0,1-1.25-2.43c-.42-1-.93-2.17-1.52-3.53s-1.22-2.87-1.92-4.47l-2.09-4.93q-1.08-2.52-2.09-4.9c-.68-1.58-1.31-3.06-1.88-4.4l-1.45-3.42c-.41-.94-.7-1.58-.86-2a8.51,8.51,0,0,0-.41-.81,1.24,1.24,0,0,0-.4-.46.88.88,0,0,0-.56-.15.85.85,0,0,0-.67.42,7.27,7.27,0,0,0-.7,1.37l-12.13,28.2a12.86,12.86,0,0,1-.94,2,4.55,4.55,0,0,1-1.18,1.34,3.81,3.81,0,0,1-1.72.66,5.39,5.39,0,0,0-.68,0l-.69,0a.55.55,0,0,0-.41.14.5.5,0,0,0-.12.34.39.39,0,0,0,.21.38,1.67,1.67,0,0,0,.64.09c.82,0,1.6,0,2.36,0s1.41,0,1.95-.07l1.06,0c.5,0,1.06,0,1.66,0l1.82.07c.61,0,1.17,0,1.68,0a1.27,1.27,0,0,0,.55-.09.4.4,0,0,0,.2-.38.46.46,0,0,0-.12-.34.84.84,0,0,0-.56-.14h-.7a2.43,2.43,0,0,1-1.45-.33,1.11,1.11,0,0,1-.39-.93,5.84,5.84,0,0,1,.17-1.16,8.38,8.38,0,0,1,.52-1.59l2.48-6a.44.44,0,0,1,.14-.26.49.49,0,0,1,.27-.06Zm-43.18-19.51a.86.86,0,0,1,.09-.41.54.54,0,0,1,.33-.22,7.46,7.46,0,0,1,1.12-.12c.49,0,1,0,1.63,0a7.91,7.91,0,0,1,3.67,1,6.41,6.41,0,0,1,1.69,1.46,6.64,6.64,0,0,1,1.22,2.27,10.18,10.18,0,0,1,.48,3.26A9.57,9.57,0,0,1,362,517a7,7,0,0,1-1.12,2.16,7.07,7.07,0,0,1-1.41,1.35,3.16,3.16,0,0,1-.8.45,4.47,4.47,0,0,1-1,.22c-.39,0-.88.06-1.5.06s-1.2,0-1.82-.08a10.32,10.32,0,0,1-1.71-.35.58.58,0,0,1-.33-.28,1.17,1.17,0,0,1-.09-.5Zm-5.9,17.77c0,1.38,0,2.67,0,3.88s0,2.29-.05,3.25-.08,1.76-.15,2.4a5.5,5.5,0,0,1-.39,1.61,1.39,1.39,0,0,1-1,.78c-.21,0-.44.08-.71.11a8.42,8.42,0,0,1-.92,0,1,1,0,0,0-.59.16.33.33,0,0,0-.14.32.35.35,0,0,0,.23.34,1.42,1.42,0,0,0,.66.13c.48,0,1,0,1.54,0l1.67,0,1.48-.05,1,0,1,0,1.82.05,2.2,0c.76,0,1.48,0,2.16,0a1.65,1.65,0,0,0,.7-.13.37.37,0,0,0,.26-.34.46.46,0,0,0-.15-.32.66.66,0,0,0-.43-.16l-.69,0c-.28,0-.55,0-.82-.05l-.76-.08a2.2,2.2,0,0,1-1.07-.43,1.74,1.74,0,0,1-.5-.8,5.17,5.17,0,0,1-.23-1.16c-.07-.64-.12-1.42-.15-2.38s-.07-2-.09-3.26,0-2.49,0-3.89v-.63a.32.32,0,0,1,.11-.28.37.37,0,0,1,.26-.09l4.17.1a1.78,1.78,0,0,1,.43.06.84.84,0,0,1,.41.26c.15.17.37.48.66.9s.66.93,1.05,1.51l1.29,1.82c.45.64.9,1.26,1.37,1.88.86,1.16,1.64,2.17,2.35,3a19.18,19.18,0,0,0,2,2.18,8.52,8.52,0,0,0,2,1.38,7.19,7.19,0,0,0,1.27.52,11.14,11.14,0,0,0,1.59.29q.91.09,2.19.09h4.43a1.82,1.82,0,0,0,.66-.09.38.38,0,0,0,.24-.38.42.42,0,0,0-.15-.32.65.65,0,0,0-.44-.16h-.51a3.53,3.53,0,0,1-.6-.1,5.4,5.4,0,0,1-1-.26,7.07,7.07,0,0,1-1.66-.81,14.28,14.28,0,0,1-2.27-1.87c-1.39-1.41-2.91-3.11-4.59-5.12s-3.53-4.26-5.58-6.81a27.9,27.9,0,0,0,3.68-3.43,12.05,12.05,0,0,0,2.09-3.24,8.17,8.17,0,0,0,.67-3.23,7.46,7.46,0,0,0-.33-2.11,8,8,0,0,0-.83-1.77,8.34,8.34,0,0,0-1-1.38,6.92,6.92,0,0,0-1.07-.91,10,10,0,0,0-2.72-1.22,18.16,18.16,0,0,0-3-.55c-1-.09-2.06-.14-3-.13l-1.51,0-2.05,0-2.07,0-1.6,0-1.05,0-1.56,0-1.84,0-1.87,0a3,3,0,0,0-.79.08.37.37,0,0,0-.27.35.39.39,0,0,0,.22.35,1.13,1.13,0,0,0,.56.13c.36,0,.71,0,1.06,0a5.33,5.33,0,0,1,.8.13,4.45,4.45,0,0,1,1.14.47,1.59,1.59,0,0,1,.62.74,3.63,3.63,0,0,1,.24,1.21c0,.28,0,.57,0,.88s0,.69,0,1.12,0,1,0,1.62v13.78Z" transform="translate(-103.79 -33.73)"/><path class="b1746407-878f-4c44-ac3b-3e2bbc79ec61" d="M712.48,524.41c0,1.37,0,2.67,0,3.88s0,2.3-.05,3.25-.08,1.77-.16,2.41a5,5,0,0,1-.38,1.6,1.35,1.35,0,0,1-1,.76,3.7,3.7,0,0,1-.72.13,6.42,6.42,0,0,1-.92,0,1,1,0,0,0-.59.16.36.36,0,0,0-.14.31.37.37,0,0,0,.22.36,1.54,1.54,0,0,0,.67.12l1.54,0c.56,0,1.11,0,1.67-.09h1.55l1.1,0c.68,0,1.46,0,2.35,0s1.89,0,3,.07,2.4.08,3.81.11,3,0,4.73,0c.57,0,1,0,1.34,0a1.2,1.2,0,0,0,.74-.3,1.84,1.84,0,0,0,.4-.82c.07-.24.13-.56.22-1s.13-.91.19-1.42.11-1,.16-1.45.06-.81.06-1.08a2.64,2.64,0,0,0-.07-.7c-.06-.22-.17-.33-.34-.34a.39.39,0,0,0-.35.16,1.58,1.58,0,0,0-.19.52,6.24,6.24,0,0,1-.68,2.16,3,3,0,0,1-1.32,1.17,6.57,6.57,0,0,1-1.41.37,11.76,11.76,0,0,1-1.57.16c-.52,0-1,0-1.4,0a17.29,17.29,0,0,1-3.7-.29,3.11,3.11,0,0,1-1.95-1.12,4.09,4.09,0,0,1-.62-2.33c0-.35,0-.8,0-1.38s0-1.2,0-1.86v-1.92c0-.59,0-1.09,0-1.48V521a1.18,1.18,0,0,1,0-.35.23.23,0,0,1,.22-.13h1.11l1.7,0,1.87.05,1.62.06a9.72,9.72,0,0,1,1,.07,4.07,4.07,0,0,1,1.39.32,2.08,2.08,0,0,1,.8.6,2.5,2.5,0,0,1,.4.82,6.15,6.15,0,0,1,.09.84c0,.3,0,.56.06.79a.3.3,0,0,0,.1.26.38.38,0,0,0,.32.11.38.38,0,0,0,.31-.17,1,1,0,0,0,.14-.41,2,2,0,0,0,0-.42c0-.08,0-.25,0-.47s0-.52.05-.81,0-.62.07-.92,0-.58.07-.8c.1-.75.16-1.35.22-1.79s.1-.81.11-1a2.34,2.34,0,0,0,0-.45.6.6,0,0,0-.1-.34.33.33,0,0,0-.27-.14.45.45,0,0,0-.3.17l-.43.41a1.78,1.78,0,0,1-.86.49,8.87,8.87,0,0,1-1.36.19L726,518l-1.86,0-2.09,0h-3a.25.25,0,0,1-.25-.14.8.8,0,0,1-.06-.34V506.53a.53.53,0,0,1,.07-.3.25.25,0,0,1,.24-.11h1c.49,0,1.06,0,1.69.05s1.29,0,1.92,0,1.18,0,1.65.06.81,0,1,.06a7.28,7.28,0,0,1,1.74.35,2.06,2.06,0,0,1,.88.56,2.84,2.84,0,0,1,.44.73,3.41,3.41,0,0,1,.2.59c0,.2.07.41.09.6a4.21,4.21,0,0,1,0,.44,1.11,1.11,0,0,0,.06.44.31.31,0,0,0,.31.15.35.35,0,0,0,.28-.15.77.77,0,0,0,.16-.31c0-.12.06-.22.08-.28s.05-.34.08-.61.05-.58.07-.89,0-.6.07-.87,0-.46.05-.58c0-.68.08-1.22.13-1.61s.12-.67.16-.85a3,3,0,0,0,.07-.45.64.64,0,0,0-.06-.28.24.24,0,0,0-.25-.14,1.39,1.39,0,0,0-.35.09,3.76,3.76,0,0,1-.4.13c-.19,0-.45.06-.8.12a10.45,10.45,0,0,1-1.14.14c-.16,0-.54,0-1.14,0H715.54l-1.79,0c-.74,0-1.52,0-2.39,0s-1.7,0-2.51,0a2.94,2.94,0,0,0-.79.09.35.35,0,0,0-.27.33.38.38,0,0,0,.22.36,1.16,1.16,0,0,0,.57.11c.35,0,.7,0,1,0a6.78,6.78,0,0,1,.79.12,4.13,4.13,0,0,1,1.16.48,1.63,1.63,0,0,1,.61.74,3.28,3.28,0,0,1,.24,1.21c0,.27,0,.58,0,.88s0,.68,0,1.12,0,1,0,1.62v13.78Zm-44.81,12a5.12,5.12,0,0,0,.58,1.25.81.81,0,0,0,.68.39.89.89,0,0,0,.59-.21,2.65,2.65,0,0,0,.52-.73c.19-.34.42-.83.69-1.44s.63-1.4,1-2.4.89-2.13,1.41-3.4,1-2.56,1.6-3.94,1.08-2.7,1.6-4,1-2.54,1.48-3.66.83-2.08,1.12-2.85.54-1.32.65-1.6h.11l9.43,22.1a9.91,9.91,0,0,0,.83,1.68,1,1,0,0,0,.81.47.89.89,0,0,0,.79-.47,7.11,7.11,0,0,0,.68-1.64c.39-1.12.82-2.42,1.33-3.9s1-3,1.58-4.71,1.13-3.35,1.72-5.08l1.7-5q.86-2.4,1.57-4.44c.48-1.35.91-2.51,1.27-3.46s.6-1.62.84-2.27a9,9,0,0,1,.8-1.59,2.12,2.12,0,0,1,.95-.83,4.36,4.36,0,0,1,.83-.17,8,8,0,0,1,.8-.05.63.63,0,0,0,.47-.14.46.46,0,0,0,.16-.37.29.29,0,0,0-.22-.29,1.94,1.94,0,0,0-.62-.09c-.52,0-1.06,0-1.6,0s-1,0-1.45,0l-.8,0-.93,0c-.47,0-1.05,0-1.75,0s-1.45,0-2.27,0a3.32,3.32,0,0,0-.84.09c-.18.07-.28.18-.28.33a.48.48,0,0,0,.24.34,1,1,0,0,0,.55.13,5.18,5.18,0,0,1,1.42.16,1.29,1.29,0,0,1,.68.46,1,1,0,0,1,.17.66,5.65,5.65,0,0,1-.12,1.13,10,10,0,0,1-.35,1.45l-.95,3.08c-.35,1.17-.74,2.43-1.15,3.75l-1.2,3.95c-.4,1.33-.79,2.58-1.15,3.75s-.69,2.2-1,3.08-.49,1.56-.65,2h-.16l-9.27-22.14a8.44,8.44,0,0,0-.79-1.6,1,1,0,0,0-.74-.51.94.94,0,0,0-.67.34,3.78,3.78,0,0,0-.7,1.29l-8.86,22.92h-.16c-.09-.3-.26-.81-.49-1.52s-.5-1.56-.8-2.55-.63-2-1-3.18l-1.06-3.43c-.35-1.15-.69-2.25-1-3.3s-.59-2-.83-2.76-.41-1.42-.53-1.85c-.29-1-.53-1.9-.72-2.6a8.44,8.44,0,0,1-.28-1.51,1.25,1.25,0,0,1,.08-.56.74.74,0,0,1,.4-.35c.18-.05.37-.08.58-.12s.39,0,.58,0a1.27,1.27,0,0,0,.59-.11.4.4,0,0,0,.26-.36.35.35,0,0,0-.26-.33,2.56,2.56,0,0,0-.75-.09c-.91,0-1.74,0-2.49,0s-1.39,0-1.9,0l-1,0-.68,0-1.27,0-1.64,0-1.79,0a3,3,0,0,0-.78.09.34.34,0,0,0-.26.33.4.4,0,0,0,.18.36,1.08,1.08,0,0,0,.55.11c.15,0,.32,0,.54,0a3.2,3.2,0,0,1,.67.1,1.9,1.9,0,0,1,.58.23,2.69,2.69,0,0,1,.87,1.11c.23.52.48,1.19.77,2Zm-33.32-.79a13.61,13.61,0,0,1-5.88-1.28,12.84,12.84,0,0,1-4.4-3.51,16,16,0,0,1-2.78-5.24,21.66,21.66,0,0,1-1-6.47,22.29,22.29,0,0,1,.67-5.68,12.19,12.19,0,0,1,1.8-4,9.38,9.38,0,0,1,2.58-2.5,9.85,9.85,0,0,1,3-1.3,13.17,13.17,0,0,1,3.16-.37,12.83,12.83,0,0,1,5.25,1.11,12.5,12.5,0,0,1,4.27,3.2,14.55,14.55,0,0,1,2.87,5,20.4,20.4,0,0,1,1,6.68,25,25,0,0,1-.56,5.5,14.77,14.77,0,0,1-1.47,3.89,10.37,10.37,0,0,1-2.07,2.55,9,9,0,0,1-2.34,1.48,9.24,9.24,0,0,1-2.29.69A10.11,10.11,0,0,1,634.35,535.58ZM632.46,538a23.07,23.07,0,0,0,6.62-.93,18.53,18.53,0,0,0,5.39-2.57,17.24,17.24,0,0,0,4-4,17,17,0,0,0,2.53-5,19.52,19.52,0,0,0,.87-5.85,17.65,17.65,0,0,0-1.32-6.95,14.51,14.51,0,0,0-3.78-5.28,16.73,16.73,0,0,0-6-3.35,25.17,25.17,0,0,0-7.9-1.18,24.5,24.5,0,0,0-6.33.77,18.88,18.88,0,0,0-5,2.08,16.18,16.18,0,0,0-3.7,3.07,16.7,16.7,0,0,0-2.53,3.69,17,17,0,0,0-1.45,4,17.15,17.15,0,0,0-.46,4,18.46,18.46,0,0,0,.46,4.06,17.34,17.34,0,0,0,1.46,4,17,17,0,0,0,2.49,3.68,16.73,16.73,0,0,0,3.63,3,18.32,18.32,0,0,0,4.84,2A23.29,23.29,0,0,0,632.46,538ZM588.07,516.5v-5.87c0-.65,0-1.18,0-1.62s0-.81,0-1.12,0-.61,0-.88a3.4,3.4,0,0,1,.44-1.73,1.82,1.82,0,0,1,1.31-.7l.68-.12a6.07,6.07,0,0,1,.63,0,.78.78,0,0,0,.46-.11.43.43,0,0,0,.18-.36.34.34,0,0,0-.25-.33,2.64,2.64,0,0,0-.76-.09l-1.42,0c-.55,0-1.13,0-1.72,0l-1.63,0-1.18,0-1.63,0c-.7,0-1.49,0-2.35,0s-1.69,0-2.51,0a3,3,0,0,0-.78.09c-.19.07-.27.18-.27.33a.41.41,0,0,0,.21.36,1.23,1.23,0,0,0,.57.11c.36,0,.71,0,1,0a7,7,0,0,1,.8.12,4,4,0,0,1,1.16.48,1.7,1.7,0,0,1,.61.74A3.29,3.29,0,0,1,582,507c0,.27,0,.58,0,.88s0,.68,0,1.12v19.28c0,1.2,0,2.3-.06,3.25s-.09,1.77-.15,2.41a4.93,4.93,0,0,1-.39,1.6,1.37,1.37,0,0,1-1,.76,3.7,3.7,0,0,1-.72.13,6.41,6.41,0,0,1-.91,0,1,1,0,0,0-.6.16.39.39,0,0,0-.14.31.37.37,0,0,0,.22.36,1.51,1.51,0,0,0,.67.12l1.55,0,1.68,0,1.52-.05,1.11,0,1.22,0,1.77.05,2,0,2,0a1.43,1.43,0,0,0,.64-.12.38.38,0,0,0,.25-.36.43.43,0,0,0-.17-.31.73.73,0,0,0-.46-.16c-.21,0-.43,0-.7,0s-.54,0-.83-.05a6.46,6.46,0,0,1-.73-.1,1.71,1.71,0,0,1-1.25-.76,3.34,3.34,0,0,1-.45-1.54c0-.67,0-1.48-.06-2.45s0-2.06,0-3.27v-7.94h.22l.47.64c.18.23.54.68,1.09,1.34l2,2.37c.79.9,1.61,1.85,2.48,2.86l2.57,2.91c.85.93,1.6,1.75,2.26,2.45s1.17,1.19,1.5,1.5a19.91,19.91,0,0,0,1.91,1.48,8.21,8.21,0,0,0,1.89,1,8,8,0,0,0,2.22.45,12,12,0,0,0,1.47.1c.49,0,1.08,0,1.74,0H614a2.16,2.16,0,0,0,.87-.12.35.35,0,0,0,.24-.36.4.4,0,0,0-.18-.33.68.68,0,0,0-.44-.14,6,6,0,0,1-1.11-.07,7.09,7.09,0,0,1-1.75-.51,12.21,12.21,0,0,1-2.29-1.28c-.69-.52-1.37-1.07-2-1.67s-1.32-1.23-2-1.84c-.31-.3-.8-.78-1.45-1.44s-1.39-1.41-2.24-2.29l-2.65-2.76c-.91-1-1.79-1.89-2.62-2.79s-1.59-1.71-2.22-2.41-1.09-1.24-1.37-1.6c.3-.34.78-.83,1.42-1.48s1.39-1.39,2.21-2.19l2.49-2.39,2.23-2.12c.67-.61,1.15-1.08,1.46-1.36a19.68,19.68,0,0,1,2.62-2.16,10.91,10.91,0,0,1,2.28-1.16,6.18,6.18,0,0,1,.92-.28,6.87,6.87,0,0,1,.95-.18,5.36,5.36,0,0,1,.82-.08.91.91,0,0,0,.5-.11.41.41,0,0,0,.19-.36.37.37,0,0,0-.23-.33,1.65,1.65,0,0,0-.57-.09c-.48,0-1.06,0-1.72,0s-1.33,0-2,0l-1.73,0-1.15,0-1.34,0c-.48,0-.91,0-1.32,0l-1,0a1.51,1.51,0,0,0-.54.09.37.37,0,0,0,0,.63,1.64,1.64,0,0,0,.48.17.8.8,0,0,1,.47.32,1,1,0,0,1,.16.59,2.62,2.62,0,0,1-.67,1.4c-.43.53-1,1.18-1.65,1.91-.28.32-.74.81-1.37,1.46l-2.18,2.19c-.8.82-1.62,1.63-2.44,2.45L589.77,517c-.66.67-1.16,1.18-1.48,1.54h-.22Zm-48-3.48h.16c.24.21.68.67,1.36,1.38l2.5,2.64,3.29,3.39q1.78,1.82,3.71,3.66c1.21,1.19,2.48,2.39,3.76,3.61s2.52,2.43,3.74,3.6l3.39,3.21,2.66,2.5a4.43,4.43,0,0,0,.82.65,2,2,0,0,0,1.07.29.6.6,0,0,0,.52-.33,2.35,2.35,0,0,0,.22-1.09l.52-28.25a11.13,11.13,0,0,1,.19-2,2.21,2.21,0,0,1,.52-1.12,2,2,0,0,1,1-.57,3.28,3.28,0,0,1,.75-.13,4.93,4.93,0,0,1,.67,0,1,1,0,0,0,.59-.13.38.38,0,0,0,.2-.34.35.35,0,0,0-.29-.35,2.72,2.72,0,0,0-.77-.07c-1.14,0-2.12,0-2.91.05s-1.33.06-1.62.06l-1.43,0c-.62,0-1.32,0-2.08,0s-1.57,0-2.39,0a3.15,3.15,0,0,0-.83.07c-.22.06-.33.17-.33.35a.42.42,0,0,0,.14.34,1,1,0,0,0,.59.13c.22,0,.48,0,.76,0s.59,0,.89.06a3.56,3.56,0,0,1,.78.19,2.13,2.13,0,0,1,.9.6,2.92,2.92,0,0,1,.5,1.21,13.57,13.57,0,0,1,.18,2.14l.48,19.93H564c-.16-.14-.49-.47-1-1s-1.16-1.16-1.92-1.92-1.55-1.58-2.41-2.44l-2.5-2.53L554,518.51c-1.37-1.33-2.69-2.65-4-4s-2.57-2.56-3.74-3.74l-3.18-3.2c-.93-1-1.69-1.7-2.27-2.31l-1.07-1.08c-.39-.39-.75-.74-1.08-1a1.48,1.48,0,0,0-.92-.44.65.65,0,0,0-.57.43,2.46,2.46,0,0,0-.22,1.11l-.43,26.56c0,1.29,0,2.31-.11,3.08a4.44,4.44,0,0,1-.41,1.67,1.39,1.39,0,0,1-.89.68,8.42,8.42,0,0,1-1.06.16c-.38,0-.73.05-1,.05a1,1,0,0,0-.54.14.42.42,0,0,0-.2.33.39.39,0,0,0,.29.4,2.39,2.39,0,0,0,.76.08c.8,0,1.55,0,2.26,0l1.79-.08,1,0,2.2.08c1,0,2.3.06,3.81.08a2.25,2.25,0,0,0,.76-.1.39.39,0,0,0,.29-.38.36.36,0,0,0-.2-.33,1,1,0,0,0-.58-.14q-.57,0-1.2-.06a5.73,5.73,0,0,1-1.23-.26,1.49,1.49,0,0,1-.78-.62,4,4,0,0,1-.55-1.5,17.07,17.07,0,0,1-.25-2.72Z" transform="translate(-103.79 -33.73)"/><path class="b1746407-878f-4c44-ac3b-3e2bbc79ec61" d="M129.27,449.93a1.09,1.09,0,0,0-1,.82l-6.09,18a21.47,21.47,0,0,0-1.41,6.8c0,2,1.91,2.94,3.64,2.94h.92c1,0,1.32.21,1.32.61,0,.61-.91.81-1.83.81-2.44,0-6.49-.29-7.61-.29s-6.7.29-11.47.29c-1.32,0-1.93-.2-1.93-.81,0-.4.5-.61,1.42-.61a19.38,19.38,0,0,0,2.43-.2c4.67-.61,6.71-4.46,8.54-9.54l23-63c1.22-3.35,1.61-4,2.23-4s1,.5,2.23,3.66c1.53,3.85,17.46,45.76,23.65,61.2,3.66,9,6.6,10.66,8.73,11.26a12.94,12.94,0,0,0,4,.61c.61,0,1.12.11,1.12.61s-.92.81-2,.81c-1.52,0-8.93,0-15.93-.2-1.93-.09-3-.09-3-.7,0-.41.31-.61.71-.72.62-.2,1.22-1.12.62-2.74l-9.44-25a.92.92,0,0,0-.92-.61Zm20.5-3.65c.5,0,.5-.3.41-.71l-9.65-27.41q-.75-2.28-1.52,0l-8.93,27.41c-.21.51,0,.71.3.71Z" transform="translate(-103.79 -33.73)"/><path class="b1746407-878f-4c44-ac3b-3e2bbc79ec61" d="M195.5,451.66c0,12.38,2.33,17.66,6.2,21.11a19.35,19.35,0,0,0,13.38,4.68c5.29,0,10.06-1.43,13.91-5.89,4.06-4.67,5-12.39,5-21.22V439.58c0-13.29,0-15.64-.2-18.37-.21-2.93-.5-4.46-3.75-5a23.7,23.7,0,0,0-2.84-.2c-.62,0-1-.32-1-.61,0-.61.51-.82,1.42-.82,4.36,0,9.44.31,9.85.31s4.87-.31,7.71-.31c1,0,1.42.21,1.42.71s-.4.72-1,.72a14,14,0,0,0-1.83.1c-2.84.3-3.25,2.14-3.45,5.07-.1,2.73-.1,5.08-.1,18.37v9c0,9.13-1,20.09-8.23,26.29-6.59,5.58-13.09,6.09-18.57,6.09-2.84,0-12.39,0-19-6.09-4.36-4.06-7.51-10.15-7.51-22.75V439.58c0-13.4,0-15.73-.31-18.47-.09-2.74-.6-4.47-3.76-4.87a20,20,0,0,0-2.63-.2c-.7,0-1.11-.32-1.11-.61,0-.61.41-.82,1.51-.82,4.37,0,9.86.31,10.57.31s6.8-.31,9.53-.31c1.12,0,1.42.21,1.42.71s-.71.72-1.21.72a20.74,20.74,0,0,0-2.24.2c-2.43.3-2.84,2-3,4.87s-.09,5.07-.09,18.47Z" transform="translate(-103.79 -33.73)"/><path class="b1746407-878f-4c44-ac3b-3e2bbc79ec61" d="M266,439.58c0-13.4,0-15.93-.2-18.57s-1-4.16-4-4.77a23.44,23.44,0,0,0-2.94-.2c-.51,0-1-.32-1-.62,0-.6.61-.81,1.53-.81,4.15,0,10.55.31,10.85.31.71,0,6-.31,11.68-.31,8.93,0,25.58-.92,36.34,9.95,4.46,4.47,8.63,11.57,8.63,21.82a34.72,34.72,0,0,1-9.65,24.26c-4,4-11.67,9.95-27.1,9.95-3.87,0-8.84-.21-12.69-.51s-7-.5-7.3-.5-1.53,0-3.46.09-4.36.2-5.89.2c-.91,0-1.41-.2-1.41-.71,0-.3.3-.7,1.11-.7a9.39,9.39,0,0,0,2.33-.31c1.73-.31,2.35-2.44,2.65-4.67.6-3.75.5-10.66.5-18.87Zm8.32,8.63c0,9.14.11,17.05.11,18.57.1,3.15.3,5.89,1,6.8,1.12,1.73,4.36,3.85,14.91,3.85,8.34,0,15.84-2.62,21.13-7.9,4.47-4.47,6.59-12.09,6.59-20.2,0-11.47-5.29-18.48-8.73-21.83-8.62-8.63-18.58-9.64-28.62-9.64-1.43,0-4.57.3-5.18.71a1.65,1.65,0,0,0-1.11,1.73c-.11,2.94-.11,11.57-.11,17.65Z" transform="translate(-103.79 -33.73)"/><path class="b1746407-878f-4c44-ac3b-3e2bbc79ec61" d="M358.7,457.75c0-4.87-.71-6.7-2.23-9.34-.6-1.12-12.38-20.3-15.53-24.66-2.74-3.86-3.76-5.07-5.18-6.19A8.07,8.07,0,0,0,331,416c-.6,0-1.1-.31-1.1-.81,0-.3.41-.61,1.21-.61,1.62,0,9.34.31,9.55.31.6,0,3.95-.31,7.71-.31,1,0,1.32.31,1.32.61s-.3.61-1.12.81c-1.42.31-1.62.82-1.62,1.62a7.84,7.84,0,0,0,1.32,3.36c1.32,2.54,14.71,24.05,16.24,26.6,1.62-3.56,13-22.14,14.41-24.67,1.93-3.35,2.34-4.26,2.34-5.38,0-1.32-1.22-1.32-2.34-1.53-.81-.1-1.11-.4-1.11-.81s.2-.61,1.22-.61c2.43,0,4.56.31,6.18.31,1.32,0,7.21-.31,8.94-.31.91,0,1.21.31,1.21.61,0,.5-.5.81-1.21.81-2.13.1-3.65.31-5.08,1.33s-2.13,1.93-3.75,4.16c-5.89,8.1-15.73,24.65-17.26,28.21-1.22,3.15-1,5.38-1,8v7.41c0,.71,0,4.47.2,8.11.2,2.44.4,4.16,3.55,4.78a19.42,19.42,0,0,0,3.75.41c.81,0,1.13.31,1.13.6,0,.52-.32.81-1.22.81-5.08,0-11.37-.29-11.68-.29s-6.29.29-9.13.29c-1,0-1.42-.29-1.42-.81,0-.29.3-.6,1-.6a11,11,0,0,0,2.54-.3c1.73-.32,2.43-2.45,2.64-4.89.3-3.64.3-7.3.3-8.11Z" transform="translate(-103.79 -33.73)"/><path class="b1746407-878f-4c44-ac3b-3e2bbc79ec61" d="M435.19,454.81c0,7.82.11,15,.51,18.78.29,2.43.5,3.86,3,4.47a20.53,20.53,0,0,0,4,.4c.8,0,1.21.31,1.21.6,0,.52-.3.82-1.32.82-5.18,0-11.17-.3-11.57-.3s-6.4.3-9,.3c-1.12,0-1.52-.2-1.52-.72,0-.3.31-.7,1.13-.7a16.79,16.79,0,0,0,2.23-.1c1.92-.3,2.23-1.53,2.63-5,.4-3.65.4-11,.4-18.57V418.58c-3.34,0-8.72,0-12.78.09-6.5.11-7.92,1.12-9.35,3.25a17.11,17.11,0,0,0-1.51,3.14c-.31.72-.51.82-.92.82s-.5-.42-.5-.92,1.42-7.31,2-10c.3-1.22.6-1.63.9-1.63.71,0,2.65.91,4.47,1.12,3.56.41,6.4.51,6.5.51H449a43.94,43.94,0,0,0,7.31-.51,12.05,12.05,0,0,1,1.94-.4c.4,0,.6.51.6.91,0,2.84-.2,9.54-.2,10.35s-.4,1.23-.72,1.23c-.49,0-.71-.42-.71-1.23a11.63,11.63,0,0,0-.1-1.42c-.4-4.06-1.71-5.07-12-5.18-3.85,0-7-.09-9.94-.09Z" transform="translate(-103.79 -33.73)"/><path class="b1746407-878f-4c44-ac3b-3e2bbc79ec61" d="M521.29,450.65c0,14.92.41,21.42,2.24,23.24,1.62,1.62,4.26,2.34,12.17,2.34,5.39,0,9.86-.1,12.29-3.05a14.06,14.06,0,0,0,2.64-6.09c.1-.81.31-1.31.92-1.31s.61.39.61,1.51a65,65,0,0,1-1.53,10.14c-.71,2.35-1,2.75-6.39,2.75-8.73,0-17.36-.6-27.2-.6-3.16,0-6.19.29-9.95.29-1.12,0-1.62-.2-1.62-.81,0-.29.2-.6.8-.6a15.86,15.86,0,0,0,3.05-.41c2-.41,2.53-2.64,2.94-5.57.51-4.27.51-12.3.51-22V432.58c0-15.84,0-18.68-.2-21.92-.21-3.46-1-5.08-4.36-5.79a18.46,18.46,0,0,0-3.45-.3c-.42,0-.82-.21-.82-.61,0-.62.5-.82,1.62-.82,4.58,0,11,.31,11.48.31s7.92-.31,11-.31c1.12,0,1.63.2,1.63.82,0,.4-.41.61-.82.61a22.52,22.52,0,0,0-3.34.3c-2.94.5-3.76,2.23-4,5.79-.21,3.24-.21,6.08-.21,21.92Z" transform="translate(-103.79 -33.73)"/><path class="b1746407-878f-4c44-ac3b-3e2bbc79ec61" d="M570.48,439.58c0-13.29,0-15.73-.2-18.47s-.91-4.26-3.86-4.87A15.5,15.5,0,0,0,564,416c-.71,0-1.32-.31-1.32-.61,0-.6.5-.81,1.53-.81,2,0,4.76.21,10.45.31.5,0,18.57,0,20.61-.1a14.2,14.2,0,0,0,4-.52,3.11,3.11,0,0,1,1.12-.29c.21,0,.41.2.41.7s-.61,2-.82,4.58c-.09,1.72-.21,3.34-.3,5.27,0,.91-.2,1.52-.71,1.52s-.71-.41-.71-1.12a9.63,9.63,0,0,0-.72-3.24c-.6-2-1.52-2.75-6.59-3.05-1.32-.1-11.36-.2-11.58-.2s-.5.2-.5.82v23c0,.61.1,1,.61,1,1.21,0,11.56-.11,13.71-.31,2.32-.1,3.86-.41,4.66-1.52.41-.61.71-.81,1.12-.81.2,0,.41.1.41.62s-.41,2.42-.71,5.36-.31,4.87-.41,6.19c-.11.82-.31,1.13-.72,1.13s-.6-.62-.6-1.32a12.07,12.07,0,0,0-.3-2.43c-.41-1.33-1-2.75-4.88-3.06-2.33-.2-10.55-.4-12.17-.4-.62,0-.72.3-.72.71v7.41c0,3.14-.1,12.08,0,13.8.2,3.76.72,5.69,2.83,6.6,1.54.71,4,.91,7.42.91a29.78,29.78,0,0,0,7.71-.61c3.06-.9,3.77-2.94,4.58-6.69.19-1,.49-1.42.9-1.42.61,0,.61.9.61,1.52s-.8,7.11-1.1,8.82c-.41,2-1.13,2.24-4.47,2.24-6.71,0-9.55-.21-13.1-.21s-8.23-.29-12-.29c-2.33,0-4.27.29-6.7.29-.91,0-1.42-.2-1.42-.71a.83.83,0,0,1,.92-.71,7.75,7.75,0,0,0,2-.29c1.83-.41,3-1.73,3.24-8,.1-3.44.2-7.61.2-15.32Z" transform="translate(-103.79 -33.73)"/><path class="b1746407-878f-4c44-ac3b-3e2bbc79ec61" d="M675.9,472.37c0,4.06-.09,4.16-1.21,4.77C669.11,480,661,481,656,481c-6.6,0-19.39-.51-29.73-9.14a32,32,0,0,1-11-24.67c0-13.8,7-23.64,15.32-28.62,7.82-4.56,16.44-5.18,22.64-5.18a78.57,78.57,0,0,1,14.51,1.43,74.79,74.79,0,0,0,7.72.9c.81,0,.81.41.81.81a114.15,114.15,0,0,0-.71,13.2c0,1.43-.1,1.83-.81,1.83-.52,0-.62-.61-.71-1.21a13.08,13.08,0,0,0-1.94-6.3c-2.34-3.35-9.63-7.11-21-7.11-5.47,0-11.87.21-18.67,5.38-5.18,4-8.54,11.68-8.54,21.73,0,12.08,6.6,21,9.25,23.54a31.5,31.5,0,0,0,23,9.45c2.84,0,7.32-.51,9.65-1.73a3.42,3.42,0,0,0,1.72-3V457.64c0-6.69-.51-8-4.05-8.52a17.57,17.57,0,0,0-2.44-.2c-.82,0-1.23-.4-1.23-.72,0-.5.41-.7,1.53-.7,4.05,0,9.94.2,10.35.2s6.39-.2,9.14-.2c1,0,1.41.2,1.41.7,0,.32-.3.72-1.22.72a10.7,10.7,0,0,0-1.73.1c-2.44.3-3,2.12-3.24,5.08s-.21,5.47-.21,9.14Z" transform="translate(-103.79 -33.73)"/><path class="b1746407-878f-4c44-ac3b-3e2bbc79ec61" d="M702.65,439.58c0-13.4,0-15.83-.21-18.57s-.8-4.27-2.94-4.67c-1-.21-1.73-.21-2.33-.31s-1.13-.31-1.13-.71.41-.71,1.54-.71c3.15,0,8.92.31,9.24.31s6.28-.31,9.13-.31c1,0,1.51.21,1.51.71s-.29.61-1.11.71c-.6.1-1.12.1-1.82.21-2.95.4-3.25,1.92-3.46,4.87-.19,2.74-.1,5.07-.1,18.47v15.23c0,7.82-.09,14.92.4,18.56.41,3,.82,4.06,3.45,4.68a23,23,0,0,0,3.86.4c.91.11,1.13.32,1.13.71s-.41.71-1.43.71c-5.18,0-11.07-.29-11.56-.29-.32,0-6.31.29-9.14.29-.92,0-1.64-.2-1.64-.71s.41-.71,1.32-.71a12.08,12.08,0,0,0,2.44-.29c1.73-.41,2-2.45,2.33-4.89.52-3.64.52-10.85.52-18.46Z" transform="translate(-103.79 -33.73)"/><path class="b1746407-878f-4c44-ac3b-3e2bbc79ec61" d="M735.62,478.76c-1.33-.61-1.33-1-1.33-3.44,0-4.67.31-8.13.41-9.56.09-.9.31-1.4.81-1.4s.7.29.7,1a12.17,12.17,0,0,0,.32,3.06c1.31,6.58,7.31,9.12,13.19,9.12,8.42,0,12.48-5.78,12.48-10.85,0-5.79-2.63-9.35-10.05-15.33l-4.06-3.15C738.35,440.4,736.32,435,736.32,429c0-9.33,7.41-15.62,18.78-15.62a36.27,36.27,0,0,1,8.23.8,16.49,16.49,0,0,0,3.45.51c.7,0,.91.21.91.61s-.41,4-.41,9.85c0,1.52-.2,2.14-.71,2.14s-.61-.42-.72-1.13a13.36,13.36,0,0,0-1.21-4.77c-.51-.91-2.85-4.77-11.38-4.77-6.08,0-10.64,3.65-10.64,9.75,0,4.77,2.43,7.71,10.86,14.11l2.33,1.83c10.56,8.11,13.3,13.5,13.3,20.7a17.83,17.83,0,0,1-7.72,14.42A25.51,25.51,0,0,1,747.7,481a28.64,28.64,0,0,1-12.08-2.24" transform="translate(-103.79 -33.73)"/><path class="b1746407-878f-4c44-ac3b-3e2bbc79ec61" d="M672.28,57.83a24.23,24.23,0,0,1-24.7,24.41c-13.82,0-24.84-10.73-24.84-24.41,0-13.37,11-24.1,24.84-24.1S672.28,44.46,672.28,57.83Zm-43.37,0c0,10.74,7.94,19.26,18.82,19.26,10.58,0,18.37-8.52,18.37-19.11s-7.79-19.4-18.52-19.4S628.91,47.25,628.91,57.83Zm14.85,12.65h-5.59V46.37a48.85,48.85,0,0,1,9.26-.74c4.56,0,6.62.74,8.38,1.77a6.69,6.69,0,0,1,2.35,5.29c0,2.65-2.06,4.7-5,5.59v.29c2.35.88,3.67,2.65,4.41,5.88.73,3.68,1.17,5.15,1.76,6h-6c-.73-.88-1.17-3.09-1.91-5.88-.44-2.65-1.91-3.82-5-3.82h-2.64Zm.14-13.67h2.65c3.09,0,5.59-1,5.59-3.53,0-2.21-1.62-3.68-5.15-3.68a13.16,13.16,0,0,0-3.09.3Z" transform="translate(-103.79 -33.73)"/></svg>