<svg xmlns="http://www.w3.org/2000/svg" width="195" height="52.776" viewBox="0 0 195 52.776"><defs><style>.a{fill:#d31211;}</style></defs><g transform="translate(-623 -21.326)"><g transform="translate(684.511 38.682)"><path d="M57.011,32.244a9.213,9.213,0,0,1-.657,3.51,8.19,8.19,0,0,1-1.848,2.779,8.338,8.338,0,0,1-2.87,1.829,10.119,10.119,0,0,1-3.725.657H41.1V23.481h6.813a10.071,10.071,0,0,1,3.725.664,8.481,8.481,0,0,1,2.87,1.829,8.124,8.124,0,0,1,1.848,2.775A9.166,9.166,0,0,1,57.011,32.244Zm-4.164,0a7.654,7.654,0,0,0-.337-2.347,5.061,5.061,0,0,0-.969-1.774A4.206,4.206,0,0,0,49.993,27a5.256,5.256,0,0,0-2.082-.392h-2.72v11.28h2.72a5.256,5.256,0,0,0,2.082-.392,4.233,4.233,0,0,0,1.547-1.12,5.051,5.051,0,0,0,.969-1.777A7.679,7.679,0,0,0,52.846,32.244Z" transform="translate(-41.098 -23.481)"/></g><g transform="translate(702.83 38.682)"><path d="M60.062,23.481v3.13h-7.2V30.7h5.514v3.009H52.863v4.179h7.2V41.02H48.77V23.481Z" transform="translate(-48.77 -23.481)"/></g><g transform="translate(715.18 38.682)"><path d="M53.942,23.481h3.274a1.459,1.459,0,0,1,.867.241,1.35,1.35,0,0,1,.482.638l3.393,9.389c.153.411.308.855.463,1.337s.3.986.439,1.516c.112-.53.244-1.034.392-1.516s.3-.926.439-1.337l3.372-9.389a1.4,1.4,0,0,1,1.323-.879h3.3L64.656,41.02H60.972Z" transform="translate(-53.942 -23.481)"/></g><g transform="translate(733.741 38.682)"><path d="M73.007,23.481v3.13h-7.2V30.7h5.514v3.009H65.808v4.179h7.2V41.02H61.715V23.481Z" transform="translate(-61.715 -23.481)"/></g><g transform="translate(747.535 38.682)"><path d="M71.561,35.158V41.02H67.492V23.481h6.187a10.262,10.262,0,0,1,3.185.439,6.122,6.122,0,0,1,2.19,1.211,4.722,4.722,0,0,1,1.27,1.817,6.188,6.188,0,0,1,.408,2.264,6.688,6.688,0,0,1-.42,2.407A4.855,4.855,0,0,1,79.023,33.5a6.036,6.036,0,0,1-2.194,1.22,10.059,10.059,0,0,1-3.15.439Zm0-3.068h2.118a2.582,2.582,0,0,0,2.985-2.877,3.2,3.2,0,0,0-.179-1.1,2.225,2.225,0,0,0-.549-.848,2.418,2.418,0,0,0-.926-.547,4.081,4.081,0,0,0-1.33-.193H71.561Z" transform="translate(-67.492 -23.481)"/></g><g transform="translate(762.846 38.682)"><path d="M77.973,34.532V41.02H73.9V23.481h5.707a11.709,11.709,0,0,1,3.243.392,6.121,6.121,0,0,1,2.192,1.091,4.094,4.094,0,0,1,1.232,1.648,5.451,5.451,0,0,1,.387,2.07,5.553,5.553,0,0,1-.229,1.614,4.921,4.921,0,0,1-.681,1.4,5.2,5.2,0,0,1-1.108,1.149,5.847,5.847,0,0,1-1.509.831,3.823,3.823,0,0,1,.764.506,3.006,3.006,0,0,1,.618.733l3.732,6.1H84.57a1.56,1.56,0,0,1-1.469-.769l-2.913-5.093a1.25,1.25,0,0,0-.451-.482,1.526,1.526,0,0,0-.728-.143Zm0-2.8h1.638a4.166,4.166,0,0,0,1.414-.213,2.534,2.534,0,0,0,.958-.583,2.22,2.22,0,0,0,.542-.874,3.349,3.349,0,0,0,.167-1.077,2.263,2.263,0,0,0-.752-1.805,3.506,3.506,0,0,0-2.328-.649H77.973Z" transform="translate(-73.904 -23.481)"/></g><g transform="translate(777.761 38.491)"><path d="M98.374,32.355a9.432,9.432,0,0,1-.657,3.539A8.346,8.346,0,0,1,93,40.639a10.486,10.486,0,0,1-7.457,0,8.365,8.365,0,0,1-4.735-4.745,9.864,9.864,0,0,1,0-7.078,8.417,8.417,0,0,1,1.853-2.839,8.591,8.591,0,0,1,2.882-1.891,9.845,9.845,0,0,1,3.732-.685A9.692,9.692,0,0,1,93,24.093a8.6,8.6,0,0,1,2.873,1.9,8.472,8.472,0,0,1,1.846,2.839A9.406,9.406,0,0,1,98.374,32.355Zm-4.164,0a7.586,7.586,0,0,0-.337-2.34,4.978,4.978,0,0,0-.969-1.765,4.179,4.179,0,0,0-1.547-1.106,5.3,5.3,0,0,0-2.082-.387,5.367,5.367,0,0,0-2.1.387,4.166,4.166,0,0,0-1.554,1.106,4.978,4.978,0,0,0-.969,1.765,8.35,8.35,0,0,0,0,4.694,4.946,4.946,0,0,0,.969,1.762,4.108,4.108,0,0,0,1.554,1.1,5.5,5.5,0,0,0,2.1.377,5.432,5.432,0,0,0,2.082-.377,4.12,4.12,0,0,0,1.547-1.1,4.947,4.947,0,0,0,.969-1.762A7.637,7.637,0,0,0,94.21,32.355Z" transform="translate(-80.15 -23.401)"/></g><g transform="translate(798.284 38.696)"><path d="M98.177,33.946c.148.33.289.666.427,1.012.134-.353.279-.7.432-1.032s.308-.657.47-.969l4.5-8.868a1.435,1.435,0,0,1,.246-.356.828.828,0,0,1,.282-.186.984.984,0,0,1,.356-.06h3.57V41.011h-3.587V30.925q0-.734.072-1.59L100.3,38.351a1.515,1.515,0,0,1-.583.638,1.612,1.612,0,0,1-.838.217h-.554a1.6,1.6,0,0,1-.836-.217,1.515,1.515,0,0,1-.583-.638l-4.671-9.028q.047.423.072.838c.017.277.024.53.024.764V41.011H88.745V23.487h3.57a.971.971,0,0,1,.353.06.838.838,0,0,1,.284.186,1.5,1.5,0,0,1,.246.356l4.513,8.9C97.874,33.3,98.027,33.616,98.177,33.946Z" transform="translate(-88.745 -23.487)"/></g><g transform="translate(623 21.326)"><path class="a" d="M67.516,44.782H49.654L48,30.556H33.48V16.212H19.4L18.015,34.177H34.679v2.288H17.839l-2.5,32.524H55.9L53.938,55.651H33.584V41.274H35.89V53.7h19.9l2.294,15.288H69.057Z" transform="translate(-15.338 -16.212)"/><path class="a" d="M37.938,28.3l1.744,14.488H55.6L53.9,16.212H23.833V28.244h14.1Z" transform="translate(-3.549 -16.212)"/></g></g></svg>