<svg id="b8ca0ffe-425b-43e6-a650-82ed6a184842" data-name="Warstwa 1" xmlns="http://www.w3.org/2000/svg" viewBox="0 0 313.69 156.26">
<path style="fill:#007934;" d="M74.27,145.46a12,12,0,0,1-8.73,3.74A13.87,13.87,0,0,1,59.75,148,14.62,14.62,0,0,1,55,144.58a16.22,16.22,0,0,1-3.17-5.09,17,17,0,0,1-1.17-6.33,15.89,15.89,0,0,1,4.39-11,15.28,15.28,0,0,1,4.82-3.39,14.46,14.46,0,0,1,6-1.26,14.71,14.71,0,0,1,7.56,1.85,12,12,0,0,1,4.74,5l-4.54,3.35a8.41,8.41,0,0,0-3.33-3.57,9.16,9.16,0,0,0-4.65-1.23,8,8,0,0,0-3.64.84A8.43,8.43,0,0,0,59.26,126a10.58,10.58,0,0,0-1.8,3.35,12.34,12.34,0,0,0-.64,4,11.84,11.84,0,0,0,.7,4.12,10.54,10.54,0,0,0,1.94,3.33A9,9,0,0,0,62.39,143a8.44,8.44,0,0,0,3.68.82q4.55,0,8.2-4.28v-2.2H68V132.9H79.3V149h-5Z" transform="translate(-50.69 -19.78)"/>
<path style="fill:#007934;" d="M84.5,149V117.69H98.33a8.92,8.92,0,0,1,4,.9,10.65,10.65,0,0,1,3.16,2.38,11.32,11.32,0,0,1,2.07,3.35,10.09,10.09,0,0,1,.75,3.77,10.35,10.35,0,0,1-1.53,5.53,8.73,8.73,0,0,1-4.12,3.6L109.79,149H103l-6.39-10.49h-6V149Zm6.08-15.82H98.2a3.19,3.19,0,0,0,1.57-.4,3.89,3.89,0,0,0,1.25-1.08,5.29,5.29,0,0,0,.84-1.6,6.15,6.15,0,0,0,.31-2,5.81,5.81,0,0,0-.35-2,5.51,5.51,0,0,0-.95-1.6,4.22,4.22,0,0,0-1.37-1.06,3.52,3.52,0,0,0-1.56-.38H90.58Z" transform="translate(-50.69 -19.78)"/>
<polygon style="fill:#007934;" points="84.84 123.87 84.84 129.2 63.11 129.2 63.11 97.91 84.45 97.91 84.45 103.24 69.2 103.24 69.2 110.78 82.37 110.78 82.37 115.72 69.2 115.72 69.2 123.87 84.84 123.87"/>
<polygon style="fill:#007934;" points="111.33 123.87 111.33 129.2 89.6 129.2 89.6 97.91 110.93 97.91 110.93 103.24 95.69 103.24 95.69 110.78 108.86 110.78 108.86 115.72 95.69 115.72 95.69 123.87 111.33 123.87"/>
<path style="fill:#007934;" d="M355.27,146.51a32.64,32.64,0,0,1-9.08-2.27C310.53,130.15,297.24,101,297.24,101c-.85-1.88-1.57-3.66-2.18-5.33a2,2,0,0,0-3.49-.34,30.43,30.43,0,0,1-56-19.1,2,2,0,0,0-2.68-2,49.55,49.55,0,0,0-4.68,2.18,50.93,50.93,0,0,0-12.53,9.34,50.37,50.37,0,0,0-4.87,5.76c-17.06-13.5-35.8-23.87-60-17.17a3.08,3.08,0,0,0,1.69,5.91c19.82-5.48,38.12,4.45,54.69,17-2.18,4.52-10.16,22.46-3.12,42.3a52,52,0,0,0,13.61,20.41C234.06,174.9,253.51,176,272,176c15.84,0,36.62-3.88,50.83-8.94,22.11-7.86,39.65-19.3,41.55-21a31.82,31.82,0,0,1-9.11.44m-124.74-.26-5-18.77-5,18.76a2.84,2.84,0,0,1-2.19,2.17,2.17,2.17,0,0,1-2.44-1.38l-9.09-27.11a2,2,0,0,1,1.43-2.49h0a2.19,2.19,0,0,1,2.69,1.33l6.92,20.64,5.4-20.1a3.34,3.34,0,0,1,.85-1.48,1.87,1.87,0,0,1,.55-.42,2,2,0,0,1,1.4-.25h0a1.91,1.91,0,0,1,1.33,1.3,3.33,3.33,0,0,1,.42.94l5.37,20,6.89-20.55a2.18,2.18,0,0,1,2.68-1.32h0a2,2,0,0,1,1.43,2.48l-9.06,27a2.17,2.17,0,0,1-2.43,1.37,2.81,2.81,0,0,1-2.2-2.16m49.08-6.19V118.47A1.37,1.37,0,0,1,281,117.1h1.52a1.37,1.37,0,0,1,1.37,1.37v27.88a1.37,1.37,0,0,1-1.37,1.37h-.41a2.35,2.35,0,0,1-2.77-.85l-14.94-21.14v20.62a1.37,1.37,0,0,1-1.37,1.37h-1.52a1.37,1.37,0,0,1-1.37-1.37V118.47a1.37,1.37,0,0,1,1.37-1.37H263a1.37,1.37,0,0,1,1.37,1.37v0ZM252.83,118.8v27.55a1.37,1.37,0,0,1-1.37,1.37h-1.52a1.37,1.37,0,0,1-1.37-1.37V118.8a1.37,1.37,0,0,1,1.37-1.37h1.52a1.37,1.37,0,0,1,1.37,1.37" transform="translate(-50.69 -19.78)"/>
<polygon style="fill:#007934;" points="122.17 109.15 122.17 129.2 116.09 129.2 116.09 97.91 120.81 97.91 137.12 118.45 137.12 97.95 143.2 97.95 143.2 129.2 138.26 129.2 122.17 109.15"/>
<path style="fill:#ffb71b;" d="M216,48.05h0a3.17,3.17,0,0,1,4.19-1.57l17.23,7.8A3.16,3.16,0,0,1,234.8,60l-17.23-7.8A3.17,3.17,0,0,1,216,48.05" transform="translate(-50.69 -19.78)"/>
<path style="fill:#ffb71b;" d="M264.25,19.78h0a3.16,3.16,0,0,1,3.16,3.16V41.86a3.16,3.16,0,0,1-6.32,0V22.94a3.17,3.17,0,0,1,3.16-3.16" transform="translate(-50.69 -19.78)"/>
<path style="fill:#ffb71b;" d="M311,39.94h0a3.17,3.17,0,0,1,0,4.47L297.61,57.78a3.16,3.16,0,0,1-4.47-4.47l13.38-13.37a3.15,3.15,0,0,1,4.47,0" transform="translate(-50.69 -19.78)"/>
<path style="fill:#fff;" d="M242.84,117.19a2.53,2.53,0,0,0-3.1,1.54l-6.54,19.48-5.07-18.9a3.34,3.34,0,0,0-.43-1,2.17,2.17,0,0,0-3.24-1.25,2,2,0,0,0-.64.48,3.61,3.61,0,0,0-.94,1.63l-5.11,19-6.56-19.57a2.54,2.54,0,0,0-3.14-1.54,2.47,2.47,0,0,0-1.52,1.19,2.24,2.24,0,0,0-.15,1.74l9.09,27.11a2.49,2.49,0,0,0,2.38,1.64,3.11,3.11,0,0,0,.43,0,3.16,3.16,0,0,0,2.48-2.42l4.71-17.53,4.71,17.54a3.15,3.15,0,0,0,2.47,2.41,2.52,2.52,0,0,0,2.81-1.6l9.06-27a2.18,2.18,0,0,0-.15-1.73,2.45,2.45,0,0,0-1.55-1.2" transform="translate(-50.69 -19.78)"/>
<path style="fill:#fff;" d="M282.5,116.76H281a1.72,1.72,0,0,0-1.71,1.71V139l-14.68-20.57c-.58-.87-1.19-1.65-2.11-1.65h-1a1.72,1.72,0,0,0-1.71,1.71v27.88a1.72,1.72,0,0,0,1.71,1.71H263a1.72,1.72,0,0,0,1.72-1.71V126.8l14.32,20.27a2.71,2.71,0,0,0,2.2,1.16,2.62,2.62,0,0,0,.91-.17h.34a1.72,1.72,0,0,0,1.72-1.71V118.47a1.72,1.72,0,0,0-1.72-1.71" transform="translate(-50.69 -19.78)"/>
<path style="fill:#fff;" d="M251.46,117.09h-1.52a1.71,1.71,0,0,0-1.71,1.71v27.55a1.72,1.72,0,0,0,1.71,1.71h1.52a1.72,1.72,0,0,0,1.71-1.71V118.8a1.71,1.71,0,0,0-1.71-1.71" transform="translate(-50.69 -19.78)"/>
<path style="fill:#ffb71b;" d="M241.08,78.13a24.55,24.55,0,1,0,24.55-24.55,24.55,24.55,0,0,0-24.55,24.55" transform="translate(-50.69 -19.78)"/>
<path style="fill:#ffb71b;" d="M297.66,85.05h0a3.16,3.16,0,0,1,4.19-1.58l17.23,7.81A3.16,3.16,0,0,1,316.47,97l-17.23-7.8a3.16,3.16,0,0,1-1.58-4.18" transform="translate(-50.69 -19.78)"/>
</svg>